// Generation Options: --release 30 --volume 18 --articulation Hit

<group>
ampeg_attack=0.004000
ampeg_release=30.000000

<region>
seq_length=2
seq_position=1
lovel=0
hivel=65
sample=Timpani 1/Hit/Timpani1_Hit_v2_rr1_Sum.wav
pitch_keycenter=30
lokey=30
hikey=32
tune=-20
volume=34.654064

<region>
seq_length=2
seq_position=2
lovel=0
hivel=65
sample=Timpani 1/Hit/Timpani1_Hit_v2_rr2_Sum.wav
pitch_keycenter=30
lokey=30
hikey=32
tune=-28
volume=34.415451

<region>
seq_length=2
seq_position=1
lovel=66
hivel=99
sample=Timpani 1/Hit/Timpani1_Hit_v3_rr3_Sum.wav
pitch_keycenter=30
lokey=30
hikey=32
tune=-32
volume=21.126741

<region>
seq_length=2
seq_position=2
lovel=66
hivel=99
sample=Timpani 1/Hit/Timpani1_Hit_v3_rr4_Sum.wav
pitch_keycenter=30
lokey=30
hikey=32
tune=10
volume=20.481995

<region>
seq_length=2
seq_position=1
lovel=100
hivel=127
sample=Timpani 1/Hit/Timpani1_Hit_v4_rr1_Sum.wav
pitch_keycenter=30
lokey=30
hikey=32
tune=-66
volume=11.393867

<region>
seq_length=2
seq_position=2
lovel=100
hivel=127
sample=Timpani 1/Hit/Timpani1_Hit_v4_rr2_Sum.wav
pitch_keycenter=30
lokey=30
hikey=32
volume=10.340144

<region>
seq_length=2
seq_position=1
lovel=0
hivel=65
sample=Timpani 1/Hit/Timpani2_Hit_v2_rr1_Sum.wav
pitch_keycenter=34
lokey=33
hikey=35
tune=-65
volume=25.481604

<region>
seq_length=2
seq_position=2
lovel=0
hivel=65
sample=Timpani 1/Hit/Timpani2_Hit_v2_rr2_Sum.wav
pitch_keycenter=34
lokey=33
hikey=35
volume=28.497141

<region>
seq_length=2
seq_position=1
lovel=66
hivel=99
sample=Timpani 1/Hit/Timpani2_Hit_v3_rr1_Sum.wav
pitch_keycenter=34
lokey=33
hikey=35
tune=-78
volume=20.738395

<region>
seq_length=2
seq_position=2
lovel=66
hivel=99
sample=Timpani 1/Hit/Timpani2_Hit_v3_rr2_Sum.wav
pitch_keycenter=34
lokey=33
hikey=35
tune=-34
volume=19.238587

<region>
seq_length=2
seq_position=1
lovel=100
hivel=127
sample=Timpani 1/Hit/Timpani2_Hit_v4_rr1_Sum.wav
pitch_keycenter=34
lokey=33
hikey=35
tune=-22
volume=13.732126

<region>
seq_length=2
seq_position=2
lovel=100
hivel=127
sample=Timpani 1/Hit/Timpani2_Hit_v4_rr2_Sum.wav
pitch_keycenter=34
lokey=33
hikey=35
tune=12
volume=11.869249

<region>
seq_length=2
seq_position=1
lovel=0
hivel=65
sample=Timpani 1/Hit/Timpani3_Hit_v2_rr1_Sum.wav
pitch_keycenter=37
lokey=36
hikey=38
tune=4
volume=27.426830

<region>
seq_length=2
seq_position=2
lovel=0
hivel=65
sample=Timpani 1/Hit/Timpani3_Hit_v2_rr2_Sum.wav
pitch_keycenter=37
lokey=36
hikey=38
tune=-7
volume=25.442121

<region>
seq_length=2
seq_position=1
lovel=66
hivel=99
sample=Timpani 1/Hit/Timpani3_Hit_v3_rr1_Sum.wav
pitch_keycenter=37
lokey=36
hikey=38
tune=-15
volume=19.961031

<region>
seq_length=2
seq_position=2
lovel=66
hivel=99
sample=Timpani 1/Hit/Timpani3_Hit_v3_rr2_Sum.wav
pitch_keycenter=37
lokey=36
hikey=38
tune=-6
volume=20.691964

<region>
seq_length=2
seq_position=1
lovel=100
hivel=127
sample=Timpani 1/Hit/Timpani3_Hit_v4_rr1_Sum.wav
pitch_keycenter=37
lokey=36
hikey=38
tune=-35
volume=12.776824

<region>
seq_length=2
seq_position=2
lovel=100
hivel=127
sample=Timpani 1/Hit/Timpani3_Hit_v4_rr2_Sum.wav
pitch_keycenter=37
lokey=36
hikey=38
tune=4
volume=12.592560

<region>
seq_length=2
seq_position=1
lovel=0
hivel=65
sample=Timpani 1/Hit/Timpani4_Hit_v2_rr1_Sum.wav
pitch_keycenter=40
lokey=39
hikey=41
tune=18
volume=26.120529

<region>
seq_length=2
seq_position=2
lovel=0
hivel=65
sample=Timpani 1/Hit/Timpani4_Hit_v2_rr2_Sum.wav
pitch_keycenter=40
lokey=39
hikey=41
tune=16
volume=27.018048

<region>
seq_length=2
seq_position=1
lovel=66
hivel=99
sample=Timpani 1/Hit/Timpani4_Hit_v3_rr1_Sum.wav
pitch_keycenter=40
lokey=39
hikey=41
tune=-8
volume=19.756626

<region>
seq_length=2
seq_position=2
lovel=66
hivel=99
sample=Timpani 1/Hit/Timpani4_Hit_v3_rr2_Sum.wav
pitch_keycenter=40
lokey=39
hikey=41
tune=-1
volume=19.858891

<region>
seq_length=2
seq_position=1
lovel=100
hivel=127
sample=Timpani 1/Hit/Timpani4_Hit_v4_rr1_Sum.wav
pitch_keycenter=40
lokey=39
hikey=41
tune=-34
volume=10.937817

<region>
seq_length=2
seq_position=2
lovel=100
hivel=127
sample=Timpani 1/Hit/Timpani4_Hit_v4_rr2_Sum.wav
pitch_keycenter=40
lokey=39
hikey=41
tune=-39
volume=11.021286

<region>
seq_length=2
seq_position=1
lovel=0
hivel=65
sample=Timpani 1/Hit/Timpani5_Hit_v2_rr1_Sum.wav
pitch_keycenter=42
lokey=42
hikey=43
tune=-38
volume=40.122462

<region>
seq_length=2
seq_position=2
lovel=0
hivel=65
sample=Timpani 1/Hit/Timpani5_Hit_v2_rr2_Sum.wav
pitch_keycenter=42
lokey=42
hikey=43
tune=-48
volume=34.244449

<region>
seq_length=2
seq_position=1
lovel=66
hivel=99
sample=Timpani 1/Hit/Timpani5_Hit_v3_rr1_Sum.wav
pitch_keycenter=42
lokey=42
hikey=43
tune=-39
volume=21.710224

<region>
seq_length=2
seq_position=2
lovel=66
hivel=99
sample=Timpani 1/Hit/Timpani5_Hit_v3_rr2_Sum.wav
pitch_keycenter=42
lokey=42
hikey=43
tune=-38
volume=20.501384

<region>
seq_length=2
seq_position=1
lovel=100
hivel=127
sample=Timpani 1/Hit/Timpani5_Hit_v4_rr1_Sum.wav
pitch_keycenter=42
lokey=42
hikey=43
tune=-52
volume=15.598743

<region>
seq_length=2
seq_position=2
lovel=100
hivel=127
sample=Timpani 1/Hit/Timpani5_Hit_v4_rr2_Sum.wav
pitch_keycenter=42
lokey=42
hikey=43
volume=13.986144

